HIERARCHY
ROOT joint_0
{
	OFFSET 0.000000 0.000000 0.000000
	CHANNELS 6 Xposition Yposition Zposition Zrotation Yrotation Xrotation 
	JOINT joint_1
	{
		OFFSET 3.886261 -0.864090 119.041016
		CHANNELS 3 Zrotation Yrotation Xrotation
		JOINT joint_2
		{
			OFFSET -8.814819 -1.400200 108.366943
			CHANNELS 3 Zrotation Yrotation Xrotation
			JOINT joint_3
			{
				OFFSET -10.127777 -1.846550 108.123047
				CHANNELS 3 Zrotation Yrotation Xrotation
				JOINT joint_4
				{
					OFFSET -0.104309 -2.852760 150.227051
					CHANNELS 3 Zrotation Yrotation Xrotation
					JOINT joint_5
					{
						OFFSET 20.206146 2.292160 92.163940
						CHANNELS 3 Zrotation Yrotation Xrotation
						End Site
						{
							OFFSET 0.000000 0.000000 0.000000
						}
					}
				}
				JOINT joint_6
				{
					OFFSET 0.345886 -34.260384 83.589966
					CHANNELS 3 Zrotation Yrotation Xrotation
					JOINT joint_7
					{
						OFFSET -3.824402 -146.174217 -19.015991
						CHANNELS 3 Zrotation Yrotation Xrotation
						JOINT joint_8
						{
							OFFSET 134.098145 -24.802032 -261.230957
							CHANNELS 3 Zrotation Yrotation Xrotation
							JOINT joint_9
							{
								OFFSET 123.899048 209.340523 59.187012
								CHANNELS 3 Zrotation Yrotation Xrotation
								End Site
								{
									OFFSET 0.000000 0.000000 0.000000
								}
							}
						}
					}
				}
				JOINT joint_10
				{
					OFFSET -0.423798 31.098438 84.831055
					CHANNELS 3 Zrotation Yrotation Xrotation
					JOINT joint_11
					{
						OFFSET 3.093201 146.891491 -12.504028
						CHANNELS 3 Zrotation Yrotation Xrotation
						JOINT joint_12
						{
							OFFSET 195.631927 -20.967743 -219.380981
							CHANNELS 3 Zrotation Yrotation Xrotation
							JOINT joint_13
							{
								OFFSET -8.651001 -247.511261 -36.616089
								CHANNELS 3 Zrotation Yrotation Xrotation
								End Site
								{
									OFFSET 0.000000 0.000000 0.000000
								}
							}
						}
					}
				}
			}
		}
	}
	JOINT joint_14
	{
		OFFSET 6.948090 -87.642914 -106.942017
		CHANNELS 3 Zrotation Yrotation Xrotation
		JOINT joint_15
		{
			OFFSET -34.394226 4.543823 -458.972961
			CHANNELS 3 Zrotation Yrotation Xrotation
			JOINT joint_16
			{
				OFFSET -17.051544 6.964645 -485.636009
				CHANNELS 3 Zrotation Yrotation Xrotation
				JOINT joint_17
				{
					OFFSET 190.520630 40.462875 -83.888000
					CHANNELS 3 Zrotation Yrotation Xrotation
					End Site
					{
						OFFSET 0.000000 0.000000 0.000000
					}
				}
			}
		}
	}
	JOINT joint_18
	{
		OFFSET 3.929901 87.535423 -107.188965
		CHANNELS 3 Zrotation Yrotation Xrotation
		JOINT joint_19
		{
			OFFSET -34.463440 -10.383845 -458.873047
			CHANNELS 3 Zrotation Yrotation Xrotation
			JOINT joint_20
			{
				OFFSET 14.641205 -11.071349 -485.637978
				CHANNELS 3 Zrotation Yrotation Xrotation
				JOINT joint_21
				{
					OFFSET 194.569275 -4.161928 -84.249998
					CHANNELS 3 Zrotation Yrotation Xrotation
					End Site
					{
						OFFSET 0.000000 0.000000 0.000000
					}
				}
			}
		}
	}
}
MOTION
Frames: 15
Frame Time: 0.016667
866.810730 15.476986 1151.421997 1.198542 6.554199 0.477890 0.878464 -9.535334 -0.807076 1.155397 1.009448 0.196214 1.064407 -2.171955 -0.207008 -0.298583 6.196793 0.540937 0.000000 0.000000 0.000000 3.775087 11.827464 5.238812 8.274322 15.436219 -4.855235 -48.403558 11.739910 -87.863962 0.000000 0.000000 0.000000 -5.438655 19.988504 -5.294722 2.371228 19.471700 18.219222 36.797967 -33.737119 51.776076 0.000000 0.000000 0.000000 2.774679 -0.420383 -1.049595 2.710087 -2.723169 -0.476604 2.666622 -1.739931 1.534170 0.000000 0.000000 0.000000 -0.066023 -1.561164 1.067888 0.017697 -0.928864 -0.211327 0.080447 -3.428345 -0.038680 0.000000 0.000000 0.000000 
866.861572 15.591157 1151.557007 1.206099 6.596595 0.480014 0.898445 -9.590829 -0.751358 1.170830 1.002140 0.165169 1.084369 -2.131974 -0.199601 -0.314312 6.225939 0.605215 0.000000 0.000000 0.000000 3.786356 11.791857 5.297021 8.161487 15.452582 -4.881642 -48.523992 11.673149 -87.836071 0.000000 0.000000 0.000000 -4.989053 19.961244 -5.239231 1.808528 19.340691 18.391252 36.307747 -33.574274 52.221389 0.000000 0.000000 0.000000 2.755635 -0.576872 -0.967694 2.712821 -2.478107 -0.631259 2.655493 -1.860183 1.555033 0.000000 0.000000 0.000000 -0.041955 -1.744513 0.941397 0.005660 -0.676248 0.014582 0.068375 -3.497095 -0.045331 0.000000 0.000000 0.000000 
866.547058 15.809290 1151.890015 1.279218 6.621520 0.562170 0.910965 -9.570283 -0.813504 1.191883 0.982524 0.185353 1.104765 -2.097611 -0.196833 -0.322502 6.231568 0.637888 0.000000 0.000000 0.000000 3.702052 11.762248 5.339528 8.083846 15.432771 -4.887374 -48.675597 11.582583 -87.855327 0.000000 0.000000 0.000000 -4.547673 20.002241 -5.138491 1.836982 19.286388 18.247791 36.424925 -33.871098 52.001443 0.000000 0.000000 0.000000 2.712081 -0.927201 -0.997566 2.684040 -1.850072 -0.714749 2.604087 -2.157084 1.596058 0.000000 0.000000 0.000000 -0.019061 -2.398822 0.740554 -0.040854 0.470737 0.208638 0.053467 -4.029523 -0.063026 0.000000 0.000000 0.000000 
865.714050 16.203623 1152.568970 1.521672 6.635666 0.737385 0.882422 -9.525286 -0.976197 1.176494 0.978144 0.230651 1.083045 -2.100838 -0.212467 -0.319837 6.219555 0.617459 0.000000 0.000000 0.000000 3.456572 11.766308 5.372601 8.101938 15.369762 -4.880244 -48.834439 11.463751 -87.985037 0.000000 0.000000 0.000000 -4.328060 20.211015 -5.093619 3.029428 19.441524 17.809146 37.413093 -34.746178 50.587423 0.000000 0.000000 0.000000 2.598456 -1.597354 -1.160147 2.577078 -0.620728 -0.678833 2.466500 -2.671288 1.645713 0.000000 0.000000 0.000000 0.021059 -3.879177 0.430053 -0.128551 3.158801 0.379955 0.053391 -5.283331 -0.089599 0.000000 0.000000 0.000000 
864.542969 16.723331 1153.527954 1.888900 6.660471 0.909601 0.836996 -9.513099 -1.069436 1.109836 1.001039 0.217146 1.011069 -2.133666 -0.244693 -0.311861 6.203295 0.566048 0.000000 0.000000 0.000000 3.098350 11.800741 5.412168 8.184790 15.283181 -4.867485 -49.004448 11.315392 -88.199400 0.000000 0.000000 0.000000 -4.267270 20.556672 -5.146900 5.097085 19.746294 17.292714 38.891374 -35.862808 48.245027 0.000000 0.000000 0.000000 2.426082 -2.543856 -1.327299 2.412356 1.084796 -0.584513 2.272567 -3.282935 1.690873 0.000000 0.000000 0.000000 0.091004 -6.013755 0.079650 -0.236941 7.025609 0.586662 0.080970 -6.886965 -0.111807 0.000000 0.000000 0.000000 
862.331360 17.434374 1154.620972 2.271575 6.638589 1.123009 0.909880 -9.178969 -1.237634 1.114306 0.999162 0.288319 1.001413 -2.105798 -0.268366 -0.280647 6.046252 0.439649 0.000000 0.000000 0.000000 2.566629 11.765442 5.289598 8.301115 15.061163 -4.731151 -49.256049 11.156507 -88.402622 0.000000 0.000000 0.000000 -3.985396 20.802765 -4.898635 8.541998 20.061668 15.481172 42.040744 -37.908841 43.830728 0.000000 0.000000 0.000000 2.291949 -3.780568 -1.664486 2.251478 3.317236 -0.293305 2.092891 -4.067192 1.778257 0.000000 0.000000 0.000000 0.034961 -8.779879 -0.097381 -0.496878 12.032073 0.416818 0.012549 -8.620913 -0.177216 0.000000 0.000000 0.000000 
858.316406 18.594675 1155.996948 2.667454 6.614151 1.306826 1.209656 -8.356072 -1.320313 1.244317 0.988863 0.422533 1.109177 -1.942976 -0.252408 -0.222516 5.548202 0.235070 0.000000 0.000000 0.000000 1.670806 11.595835 4.834704 8.606593 14.544036 -4.430615 -49.546585 11.020636 -88.630676 0.000000 0.000000 0.000000 -3.341339 20.878641 -4.500529 15.238142 20.540085 11.355413 47.805854 -40.590695 34.332732 0.000000 0.000000 0.000000 2.278302 -5.571028 -2.221926 2.125476 6.379236 0.361289 1.972877 -5.023478 1.927283 0.000000 0.000000 0.000000 -0.323021 -12.546792 0.231108 -1.118139 18.682822 -0.653606 -0.410654 -10.115388 -0.383417 0.000000 0.000000 0.000000 
852.765991 20.180225 1157.718018 2.949027 6.553776 1.224391 1.750010 -7.071787 -0.813991 1.475862 0.933808 0.334030 1.332544 -1.675725 -0.200087 -0.160293 4.732371 0.027820 0.000000 0.000000 0.000000 0.427244 11.336243 4.099536 9.164465 13.762736 -4.026702 -49.803197 10.906243 -88.920987 0.000000 0.000000 0.000000 -2.717041 21.103222 -4.778706 26.080095 21.347896 6.062120 53.565454 -38.715936 19.461653 0.000000 0.000000 0.000000 2.448457 -7.872446 -2.705388 2.049069 10.241623 1.304611 1.945060 -5.831674 2.081045 0.000000 0.000000 0.000000 -0.834990 -17.160750 1.279298 -2.072866 26.714835 -2.668958 -1.370425 -10.627128 -0.780573 0.000000 0.000000 0.000000 
846.992493 21.233124 1158.661011 3.032409 6.243428 1.039934 2.336672 -5.327596 -0.201568 1.810419 0.748928 0.163557 1.667026 -1.347455 -0.158706 -0.108692 3.979501 -0.135100 0.000000 0.000000 0.000000 -0.511163 11.007443 3.239892 9.406352 13.069473 -3.285569 -50.287022 10.698587 -88.844732 0.000000 0.000000 0.000000 -2.160361 21.377118 -5.184150 36.032772 22.196945 1.953073 54.486534 -29.770360 6.746264 0.000000 0.000000 0.000000 2.760578 -9.754706 -3.034603 1.976293 13.785626 2.186857 1.933808 -6.407787 2.190140 0.000000 0.000000 0.000000 -1.164768 -21.458251 2.735407 -3.062224 34.294747 -5.068764 -2.720371 -10.448922 -1.306639 0.000000 0.000000 0.000000 
841.730835 20.959162 1157.875977 3.140038 5.659683 0.988592 2.757883 -3.349046 -0.080664 2.176455 0.537985 0.142787 2.013805 -0.939886 -0.162595 -0.071802 3.496501 -0.253808 0.000000 0.000000 0.000000 -0.584394 10.614584 2.223539 8.889892 12.727447 -1.808971 -51.273537 10.259665 -87.973132 0.000000 0.000000 0.000000 -1.442777 21.105096 -4.957959 43.134905 22.931924 -0.666925 51.548405 -19.580284 -2.614197 0.000000 0.000000 0.000000 3.071042 -10.752780 -3.278809 1.792962 16.386457 2.819048 1.752943 -7.119759 2.260320 0.000000 0.000000 0.000000 -1.291593 -25.241417 4.310190 -4.064253 41.175586 -7.552503 -4.355406 -10.753879 -1.950979 0.000000 0.000000 0.000000 
836.483826 19.722618 1155.790039 3.187841 4.811918 0.911770 2.990500 -0.981869 -0.057990 2.655030 0.256387 0.120565 2.480313 -0.430421 -0.208945 -0.045799 3.108263 -0.331033 0.000000 0.000000 0.000000 -0.061095 10.187113 0.941436 8.000524 12.614438 0.286556 -52.535543 9.656795 -86.458019 0.000000 0.000000 0.000000 -0.606198 20.306977 -4.635842 48.287428 23.058666 -2.478096 46.507193 -10.734381 -11.483372 0.000000 0.000000 0.000000 3.411950 -11.162414 -3.343767 1.560255 18.478971 3.310893 1.443114 -8.005515 2.318478 0.000000 0.000000 0.000000 -1.306657 -28.857144 6.236528 -5.222038 48.015159 -10.251422 -6.470603 -11.244484 -2.804772 0.000000 0.000000 0.000000 
831.822083 18.238758 1153.324951 3.223312 3.884992 0.744353 2.919105 1.403255 0.069592 3.179434 -0.121253 0.018068 3.051199 0.047750 -0.275677 -0.032602 2.958299 -0.384594 0.000000 0.000000 0.000000 0.492226 9.793550 -0.140648 7.244428 12.623329 1.996521 -53.547332 9.163478 -84.953984 0.000000 0.000000 0.000000 -0.014490 19.465599 -4.420936 51.274779 22.327676 -3.492946 40.399243 -4.117914 -19.748176 0.000000 0.000000 0.000000 3.628807 -11.096786 -3.133719 1.360717 19.885201 3.542546 1.124782 -8.727803 2.341333 0.000000 0.000000 0.000000 -1.118373 -31.809912 8.163322 -6.117829 53.186516 -12.100934 -7.971290 -11.352414 -3.443831 0.000000 0.000000 0.000000 
828.297302 16.753149 1150.887939 3.571249 3.160825 0.596379 2.610758 3.197861 0.094257 3.527604 -0.464180 -0.078015 3.487498 0.418041 -0.320481 -0.043412 3.239370 -0.416960 0.000000 0.000000 0.000000 0.790651 9.443723 -0.523502 6.532351 12.727677 2.646456 -54.215177 8.933886 -83.768423 0.000000 0.000000 0.000000 0.016263 18.953554 -4.292310 52.823367 20.872945 -3.432949 33.314693 1.158516 -27.895063 0.000000 0.000000 0.000000 3.525411 -10.652074 -2.730814 1.134418 20.300828 3.398312 0.787981 -9.137347 2.291644 0.000000 0.000000 0.000000 -0.674735 -34.023845 9.633531 -6.376632 55.632513 -12.443935 -7.544981 -11.147378 -3.322925 0.000000 0.000000 0.000000 
825.679016 14.997045 1148.134033 4.328773 2.638559 0.496632 2.173814 4.406203 -0.080719 3.645188 -0.706368 -0.122281 3.689771 0.754929 -0.339698 -0.083739 3.890073 -0.412511 0.000000 0.000000 0.000000 1.078945 9.091159 -0.345212 5.567711 12.968575 2.605071 -54.785859 8.894416 -82.625191 0.000000 0.000000 0.000000 -0.426753 18.669714 -4.280387 53.643543 18.585324 -2.762988 25.174328 5.669409 -36.946825 0.000000 0.000000 0.000000 3.105186 -9.865516 -2.184475 0.816501 19.821618 2.931892 0.362677 -9.417313 2.180139 0.000000 0.000000 0.000000 -0.036848 -35.878305 10.719598 -6.111805 56.053898 -11.780726 -5.505806 -10.833414 -2.549550 0.000000 0.000000 0.000000 
823.304688 13.937645 1145.901978 5.191685 2.209740 0.286069 1.657773 5.333946 -0.100064 3.603587 -0.880990 -0.185141 3.730459 1.025619 -0.309159 -0.128075 4.637530 -0.436117 0.000000 0.000000 0.000000 1.317005 8.687688 -0.151207 4.929886 13.128546 2.158860 -55.067143 9.048856 -81.985130 0.000000 0.000000 0.000000 -0.904738 18.538320 -4.331873 53.607957 16.203548 -2.450999 17.801554 8.332839 -45.116565 0.000000 0.000000 0.000000 2.606526 -9.125966 -1.576709 0.507367 19.246413 2.470337 -0.012667 -9.582048 2.063884 0.000000 0.000000 0.000000 0.498943 -37.387425 11.580763 -5.691109 54.906193 -10.542571 -3.426464 -10.003457 -1.726684 0.000000 0.000000 0.000000 
